<svg>
  <symbol id="chevron-down" xmlns="http://www.w3.org/2000/svg" fill="none" viewBox="0 0 24 24" stroke-width="1.5" stroke="currentColor">
    <path stroke-linecap="round" stroke-linejoin="round" d="M19.5 8.25l-7.5 7.5-7.5-7.5" />
  </symbol>
  <symbol id="magnifying-glass" xmlns="http://www.w3.org/2000/svg" fill="none" viewBox="0 0 24 24" stroke-width="1.5" stroke="currentColor" class="w-6 h-6">
    <path stroke-linecap="round" stroke-linejoin="round" d="M21 21l-5.197-5.197m0 0A7.5 7.5 0 105.196 5.196a7.5 7.5 0 0010.607 10.607z" />
  </symbol>
  <symbol id="3-bars" xmlns="http://www.w3.org/2000/svg" fill="none" viewBox="0 0 24 24" stroke-width="1.5" stroke="currentColor" class="w-6 h-6">
    <path stroke-linecap="round" stroke-linejoin="round" d="M3.75 6.75h16.5M3.75 12h16.5m-16.5 5.25h16.5" />
  </symbol>
  <symbol id='user-circle' xmlns="http://www.w3.org/2000/svg" fill="none" viewBox="0 0 24 24" stroke-width="1.5" stroke="currentColor" class="w-6 h-6">
    <path stroke-linecap="round" stroke-linejoin="round" d="M17.982 18.725A7.488 7.488 0 0012 15.75a7.488 7.488 0 00-5.982 2.975m11.963 0a9 9 0 10-11.963 0m11.963 0A8.966 8.966 0 0112 21a8.966 8.966 0 01-5.982-2.275M15 9.75a3 3 0 11-6 0 3 3 0 016 0z" />
  </symbol>
  <symbol id='plus-user' xmlns="http://www.w3.org/2000/svg" viewBox="0 0 24 24" fill="currentColor" class="w-6 h-6">
    <path d="M6.25 6.375a4.125 4.125 0 118.25 0 4.125 4.125 0 01-8.25 0zM3.25 19.125a7.125 7.125 0 0114.25 0v.003l-.001.119a.75.75 0 01-.363.63 13.067 13.067 0 01-6.761 1.873c-2.472 0-4.786-.684-6.76-1.873a.75.75 0 01-.364-.63l-.001-.122zM19.75 7.5a.75.75 0 00-1.5 0v2.25H16a.75.75 0 000 1.5h2.25v2.25a.75.75 0 001.5 0v-2.25H22a.75.75 0 000-1.5h-2.25V7.5z" />
  </symbol>


</svg>