<svg>
  <symbol id="chevron-down" xmlns="http://www.w3.org/2000/svg" fill="none" viewBox="0 0 24 24" stroke-width="1.5" stroke="currentColor">
    <path stroke-linecap="round" stroke-linejoin="round" d="M19.5 8.25l-7.5 7.5-7.5-7.5" />
  </symbol>
  <symbol id="magnifying-glass" xmlns="http://www.w3.org/2000/svg" fill="none" viewBox="0 0 24 24" stroke-width="1.5" stroke="currentColor" class="w-6 h-6">
    <path stroke-linecap="round" stroke-linejoin="round" d="M21 21l-5.197-5.197m0 0A7.5 7.5 0 105.196 5.196a7.5 7.5 0 0010.607 10.607z" />
  </symbol>
  <symbol id="3-bars" xmlns="http://www.w3.org/2000/svg" fill="none" viewBox="0 0 24 24" stroke-width="1.5" stroke="currentColor" class="w-6 h-6">
    <path stroke-linecap="round" stroke-linejoin="round" d="M3.75 6.75h16.5M3.75 12h16.5m-16.5 5.25h16.5" />
  </symbol>
  <symbol id='user-circle' xmlns="http://www.w3.org/2000/svg" fill="none" viewBox="0 0 24 24" stroke-width="1.5" stroke="currentColor" class="w-6 h-6">
    <path stroke-linecap="round" stroke-linejoin="round" d="M17.982 18.725A7.488 7.488 0 0012 15.75a7.488 7.488 0 00-5.982 2.975m11.963 0a9 9 0 10-11.963 0m11.963 0A8.966 8.966 0 0112 21a8.966 8.966 0 01-5.982-2.275M15 9.75a3 3 0 11-6 0 3 3 0 016 0z" />
  </symbol>
  <symbol id='plus-user' xmlns="http://www.w3.org/2000/svg" viewBox="0 0 24 24" fill="currentColor" class="w-6 h-6">
    <path d="M6.25 6.375a4.125 4.125 0 118.25 0 4.125 4.125 0 01-8.25 0zM3.25 19.125a7.125 7.125 0 0114.25 0v.003l-.001.119a.75.75 0 01-.363.63 13.067 13.067 0 01-6.761 1.873c-2.472 0-4.786-.684-6.76-1.873a.75.75 0 01-.364-.63l-.001-.122zM19.75 7.5a.75.75 0 00-1.5 0v2.25H16a.75.75 0 000 1.5h2.25v2.25a.75.75 0 001.5 0v-2.25H22a.75.75 0 000-1.5h-2.25V7.5z" />
  </symbol>
  <symbol id='moon' xmlns="http://www.w3.org/2000/svg" viewBox="0 0 24 24" fill="currentColor" class="w-6 h-6">
    <path fill-rule="evenodd" d="M9.528 1.718a.75.75 0 01.162.819A8.97 8.97 0 009 6a9 9 0 009 9 8.97 8.97 0 003.463-.69.75.75 0 01.981.98 10.503 10.503 0 01-9.694 6.46c-5.799 0-10.5-4.701-10.5-10.5 0-4.368 2.667-8.112 6.46-9.694a.75.75 0 01.818.162z" clip-rule="evenodd" />
  </symbol>
  <symbol id='chat-left' xmlns="http://www.w3.org/2000/svg" viewBox="0 0 24 24" fill="currentColor" class="w-6 h-6">
    <path fill-rule="evenodd" d="M4.848 2.771A49.144 49.144 0 0112 2.25c2.43 0 4.817.178 7.152.52 1.978.292 3.348 2.024 3.348 3.97v6.02c0 1.946-1.37 3.678-3.348 3.97-1.94.284-3.916.455-5.922.505a.39.39 0 00-.266.112L8.78 21.53A.75.75 0 017.5 21v-3.955a48.842 48.842 0 01-2.652-.316c-1.978-.29-3.348-2.024-3.348-3.97V6.741c0-1.946 1.37-3.68 3.348-3.97z" clip-rule="evenodd" />
  </symbol>
  <symbol id='bell' xmlns="http://www.w3.org/2000/svg" viewBox="0 0 24 24" fill="currentColor" class="w-6 h-6">
    <path fill-rule="evenodd" d="M5.25 9a6.75 6.75 0 0113.5 0v.75c0 2.123.8 4.057 2.118 5.52a.75.75 0 01-.297 1.206c-1.544.57-3.16.99-4.831 1.243a3.75 3.75 0 11-7.48 0 24.585 24.585 0 01-4.831-1.244.75.75 0 01-.298-1.205A8.217 8.217 0 005.25 9.75V9zm4.502 8.9a2.25 2.25 0 104.496 0 25.057 25.057 0 01-4.496 0z" clip-rule="evenodd" />
  </symbol>
  <symbol id='shopping-cart' xmlns="http://www.w3.org/2000/svg" viewBox="0 0 24 24" fill="currentColor" class="w-6 h-6">
    <path d="M2.25 2.25a.75.75 0 000 1.5h1.386c.17 0 .318.114.362.278l2.558 9.592a3.752 3.752 0 00-2.806 3.63c0 .414.336.75.75.75h15.75a.75.75 0 000-1.5H5.378A2.25 2.25 0 017.5 15h11.218a.75.75 0 00.674-.421 60.358 60.358 0 002.96-7.228.75.75 0 00-.525-.965A60.864 60.864 0 005.68 4.509l-.232-.867A1.875 1.875 0 003.636 2.25H2.25zM3.75 20.25a1.5 1.5 0 113 0 1.5 1.5 0 01-3 0zM16.5 20.25a1.5 1.5 0 113 0 1.5 1.5 0 01-3 0z" />
  </symbol>
  <symbol id='wallet' xmlns="http://www.w3.org/2000/svg" viewBox="0 0 24 24" fill="currentColor" class="w-6 h-6">
    <path d="M2.273 5.625A4.483 4.483 0 015.25 4.5h13.5c1.141 0 2.183.425 2.977 1.125A3 3 0 0018.75 3H5.25a3 3 0 00-2.977 2.625zM2.273 8.625A4.483 4.483 0 015.25 7.5h13.5c1.141 0 2.183.425 2.977 1.125A3 3 0 0018.75 6H5.25a3 3 0 00-2.977 2.625zM5.25 9a3 3 0 00-3 3v6a3 3 0 003 3h13.5a3 3 0 003-3v-6a3 3 0 00-3-3H15a.75.75 0 00-.75.75 2.25 2.25 0 01-4.5 0A.75.75 0 009 9H5.25z" />
  </symbol>
  <symbol id='sun' xmlns="http://www.w3.org/2000/svg" fill="none" viewBox="0 0 24 24" stroke-width="1.5" stroke="currentColor" class="w-6 h-6">
    <path stroke-linecap="round" stroke-linejoin="round" d="M12 3v2.25m6.364.386l-1.591 1.591M21 12h-2.25m-.386 6.364l-1.591-1.591M12 18.75V21m-4.773-4.227l-1.591 1.591M5.25 12H3m4.227-4.773L5.636 5.636M15.75 12a3.75 3.75 0 11-7.5 0 3.75 3.75 0 017.5 0z" />
  </symbol>
</svg>